<svg xmlns="http://www.w3.org/2000/svg" viewBox="0 0 150 150" fill="currentColor" role="img" aria-label="Help Book"><path d="m122.8 18.4-1.9-1.6-0.3-0.1-1.8-1.5-3.6-2.3-3-1.7-2.1-1.2-1.8-0.9-3.1-1.5-1.8-0.6c-7.3-3.1-15.3-4.8-23.8-4.8h-8.3l-2.2 0.1c-37 2.1-67.2 31.6-67.2 66.8v10.6c0.5 34 27.6 66.2 65 68l7.8 0.3h3.7l3.7-0.1c13.1-0.6 26.8-4.7 38.5-13.1l4.5-3.4 3-2.7 1.1-1.5-0.6-1h-6.2l-0.9 0.4-2.9 2.3c-6 3.9-3.3 0.5-1.5-1.3l2.1-2.7 2.4-4 1.7-3.3 1.8-4.4 0.8-1.2v-1.5l-0.8 0.1-2.1 1.7c-3.7 2.2-7.3 4-15.1 4.5l-1.1-0.4 0.4-0.6c2.1-1.6 6-5.3 6.7-8.4l-0.5-0.7-3.8-2.7-6.7-6.7c-3.7-3.1-7.3-4.4-12.8-4.4-9.1 0-13.8 3.1-21 6.1-5.2 2.4-12.5 6.4-26.3 6.4-8.3-0.7-16.4-3.6-22.2-10.8l-0.6-1 0.4-0.1 3 1.6c5.3 2.8 10.4 5.8 21.5 6.1 9.9 0.3 14.1-1.3 20.2-3.7l9.2-4.1 2.7-1.2 4.9-1.7 0.5-0.5 0.4-1.2v-2.9c-0.5-10.3-4.9-21.9-13.7-28.8-5.8-5.1-12.8-10.2-29-10.5l-7 0.7 0.1-0.5c2.2-1.2 7.2-2.9 13.3-2.9 20.8-0.3 35.1 12.4 40.6 21.6l11.6 10.1 6.2 5.5 4.1 4.2 3.1 4 2.4 3.4 2 2.8 2.5 2.7 0.4 1-0.5 0.2c-3.3-0.4-4.8-2.1-8.2-5.3l-5.3-5.2c-3.9-2.8-8.1-5.5-17.4-5.8l-0.7 0.5v4.3l0.8 0.9h2c6.8-0.3 12.5 1.7 18 6.8l4.1 4.1c2.2 1.8 4.3 3.7 8.5 3.9h3.2c2.2 0 6-1.7 6.5-4 0.4-2.1-1.3-7.2-1-15.2 0.4-7.4 4.4-11.4 6.5-15 2.7-4.4 4.5-8.9 4.5-14.3v-6.2l-0.7-4-1.2-4.5v-1.9l2.6-4 3-4.9 2.3-4.2 2.1-4.5-1.1-1.5h-7.3c-9.2 0.2-16.5 3.1-20.7 5.3l-4.4 2.3-4.4 3.1-2.7 2.3-0.5-0.3 1.2-2 4.3-4.2 2.5-1.9 3-2.1 3.5-1.9 0.9-0.6v-1zm-19 45.7h0.3l0.8 0.5 1 1.4 1.7 1.6 2.3 1.3 2.2 1.1 1.3 1 0.7 1.1 0.4 1.4-0.4 1.6-1.9-1.7-1.7-0.8-2.4-1.1-2-1.6-1.7-2.3-0.6-1.6v-1.9z"/></svg>
