<svg xmlns="http://www.w3.org/2000/svg" viewBox="0 0 480 220" width="480" height="220" role="img" aria-label="Find on Page popup mockup">
  <rect width="480" height="220" rx="12" fill="#fff8f1"/>
  <rect x="0.5" y="0.5" width="479" height="219" rx="12" fill="none" stroke="#e8791d" stroke-opacity="0.25"/>

  <rect x="80" y="20" width="320" height="36" rx="18" fill="#ffffff" stroke="#e8791d" stroke-opacity="0.3"/>
  <text x="100" y="42" font-family="-apple-system, system-ui, sans-serif" font-size="13" fill="#1f1407">lazy</text>
  <rect x="100" y="32" width="2" height="14" fill="#1f1407"/>
  <text x="380" y="42" font-family="-apple-system, system-ui, sans-serif" font-size="11" fill="#a08572">⌘K</text>

  <rect x="80" y="68" width="320" height="138" rx="10" fill="#ffffff" stroke="#e8791d" stroke-opacity="0.18"/>

  <rect x="80" y="68" width="320" height="34" rx="10" fill="#fef0e1"/>
  <text x="96" y="90" font-family="-apple-system, system-ui, sans-serif" font-size="12" font-weight="600" fill="#b85a13">2 of 5 on this page</text>
  <rect x="340" y="76" width="22" height="22" rx="5" fill="#ffffff" stroke="#e8791d" stroke-opacity="0.45"/>
  <polyline points="346,90 351,84 356,90" fill="none" stroke="#b85a13" stroke-width="1.8" stroke-linecap="round" stroke-linejoin="round"/>
  <rect x="366" y="76" width="22" height="22" rx="5" fill="#e8791d"/>
  <polyline points="372,84 377,90 382,84" fill="none" stroke="#fff" stroke-width="1.8" stroke-linecap="round" stroke-linejoin="round"/>

  <text x="96" y="124" font-family="-apple-system, system-ui, sans-serif" font-size="10" font-weight="600" fill="#a08572" letter-spacing="0.5">OTHER CHAPTERS</text>

  <text x="96" y="146" font-family="-apple-system, system-ui, sans-serif" font-size="12" font-weight="600" fill="#1f1407">Diagrams (Mermaid)</text>
  <text x="96" y="162" font-family="-apple-system, system-ui, sans-serif" font-size="11" fill="#6b5949">…the library is </text>
  <rect x="160" y="151" width="28" height="13" rx="2" fill="#ffec80"/>
  <text x="163" y="162" font-family="-apple-system, system-ui, sans-serif" font-size="11" font-weight="500" fill="#1f1407">lazy</text>
  <text x="189" y="162" font-family="-apple-system, system-ui, sans-serif" font-size="11" fill="#6b5949">-loaded from a CDN…</text>

  <text x="96" y="184" font-family="-apple-system, system-ui, sans-serif" font-size="12" font-weight="600" fill="#1f1407">Charts (Chart.js)</text>
  <text x="96" y="200" font-family="-apple-system, system-ui, sans-serif" font-size="11" fill="#6b5949">…loaded from CDN on demand. </text>
  <rect x="247" y="189" width="28" height="13" rx="2" fill="#ffec80"/>
  <text x="250" y="200" font-family="-apple-system, system-ui, sans-serif" font-size="11" font-weight="500" fill="#1f1407">Lazy</text>
  <text x="276" y="200" font-family="-apple-system, system-ui, sans-serif" font-size="11" fill="#6b5949"> only when needed.</text>
</svg>
