<svg xmlns="http://www.w3.org/2000/svg" viewBox="0 0 480 300" width="480" height="300" role="img" aria-label="Help Book sidebar mockup (dark)">
  <rect width="480" height="300" rx="12" fill="#1a1410"/>
  <rect x="0.5" y="0.5" width="479" height="299" rx="12" fill="none" stroke="#e8791d" stroke-opacity="0.4"/>

  <rect x="14" y="14" width="170" height="272" rx="10" fill="#231a13" stroke="#e8791d" stroke-opacity="0.3"/>
  <circle cx="36" cy="36" r="8" fill="#e8791d"/>
  <text x="50" y="40" font-family="-apple-system, system-ui, sans-serif" font-size="13" font-weight="600" fill="#f5ead8">Help Book</text>

  <rect x="26" y="64" width="146" height="22" rx="6" fill="#3a2614"/>
  <text x="36" y="79" font-family="-apple-system, system-ui, sans-serif" font-size="11" fill="#e8791d" font-weight="600">Welcome</text>

  <text x="36" y="106" font-family="-apple-system, system-ui, sans-serif" font-size="11" fill="#7a6856">What's New</text>
  <text x="50" y="124" font-family="-apple-system, system-ui, sans-serif" font-size="11" fill="#d4c5ad">Images</text>
  <text x="50" y="142" font-family="-apple-system, system-ui, sans-serif" font-size="11" fill="#d4c5ad">Diagrams</text>
  <text x="50" y="160" font-family="-apple-system, system-ui, sans-serif" font-size="11" fill="#d4c5ad">Charts</text>
  <text x="50" y="178" font-family="-apple-system, system-ui, sans-serif" font-size="11" fill="#d4c5ad">Heading Anchors</text>
  <text x="50" y="196" font-family="-apple-system, system-ui, sans-serif" font-size="11" fill="#d4c5ad">Find on Page</text>
  <text x="50" y="214" font-family="-apple-system, system-ui, sans-serif" font-size="11" fill="#d4c5ad">Edit on GitHub</text>

  <text x="36" y="238" font-family="-apple-system, system-ui, sans-serif" font-size="11" fill="#7a6856">Configuration</text>

  <rect x="200" y="14" width="266" height="32" rx="8" fill="#231a13" stroke="#e8791d" stroke-opacity="0.3"/>
  <text x="214" y="34" font-family="-apple-system, system-ui, sans-serif" font-size="11" fill="#7a6856">Search docs… ⌘K</text>

  <rect x="200" y="58" width="266" height="14" rx="3" fill="#f5ead8" opacity="0.95"/>
  <rect x="200" y="80" width="220" height="8" rx="2" fill="#d4c5ad" opacity="0.6"/>
  <rect x="200" y="94" width="240" height="8" rx="2" fill="#d4c5ad" opacity="0.6"/>
  <rect x="200" y="108" width="180" height="8" rx="2" fill="#d4c5ad" opacity="0.6"/>

  <rect x="200" y="132" width="266" height="80" rx="8" fill="#3a2614" stroke="#e8791d" stroke-opacity="0.4"/>
  <rect x="212" y="146" width="20" height="40" fill="#e8791d"/>
  <rect x="238" y="156" width="20" height="30" fill="#e8791d" opacity="0.75"/>
  <rect x="264" y="138" width="20" height="48" fill="#e8791d" opacity="0.9"/>
  <rect x="290" y="166" width="20" height="20" fill="#e8791d" opacity="0.6"/>
  <rect x="316" y="150" width="20" height="36" fill="#e8791d" opacity="0.85"/>
  <text x="354" y="170" font-family="-apple-system, system-ui, sans-serif" font-size="10" fill="#f5b97a">Chart.js</text>

  <rect x="200" y="224" width="266" height="62" rx="8" fill="#231a13" stroke="#e8791d" stroke-opacity="0.3"/>
  <text x="214" y="244" font-family="-apple-system, system-ui, sans-serif" font-size="11" fill="#d4c5ad">The quick brown fox renders Markdown.</text>
  <text x="214" y="262" font-family="-apple-system, system-ui, sans-serif" font-size="11" fill="#d4c5ad">Drop in chapters, ship docs.</text>
  <text x="214" y="278" font-family="-apple-system, system-ui, sans-serif" font-size="10" fill="#7a6856">— Edit this page on GitHub</text>
</svg>
